<svg width="123" height="22" viewBox="0 0 123 22" fill="none" xmlns="http://www.w3.org/2000/svg">
<path d="M35.8373 12.4691C37.2234 12.7505 39.0271 13.4071 39.0076 15.4143C39.0076 16.3704 38.6474 17.1208 37.9062 17.6464C37.1846 18.1527 36.273 18.4149 35.1911 18.4149C33.2353 18.4149 31.9063 17.6644 31.2041 16.1828L33.3303 15.0007C33.615 15.8076 34.2224 16.2201 35.1911 16.2201C36.0649 16.2201 36.5006 15.9579 36.5006 15.4132C36.5006 14.9068 35.7412 14.6254 34.7725 14.3813C33.368 14.0253 31.6021 13.4433 31.6021 11.4926C31.6021 10.5738 31.9441 9.84146 32.6269 9.31707C33.3291 8.77346 34.1835 8.51013 35.2082 8.51013C36.7454 8.51013 38.0744 9.22326 38.8155 10.4992L36.7271 11.6249C36.4228 10.9874 35.9105 10.6687 35.2082 10.6687C34.5815 10.6687 34.1068 10.9682 34.1068 11.4373C34.1103 11.9436 34.8697 12.225 35.8373 12.4691Z" fill="white"/>
<path d="M48.0452 9.54195C48.7291 10.2359 49.0699 11.1739 49.0699 12.3933V18.1526H46.6213V12.694C46.6213 11.4372 45.8813 10.7614 44.7422 10.7614C43.4704 10.7614 42.6538 11.5299 42.6538 13.0873V18.1526H40.2051V5.0213H42.6538V9.82336C43.2416 8.94183 44.1909 8.51011 45.4821 8.51011C46.5263 8.51011 47.3807 8.84803 48.0452 9.54195Z" fill="white"/>
<path d="M57.0436 8.77344H59.4923V18.1527H57.0436V17.1016C56.4546 17.9831 55.5065 18.4149 54.2152 18.4149C53.171 18.4149 52.3167 18.0769 51.6339 17.383C50.9694 16.6891 50.6274 15.7511 50.6274 14.5316V8.77344H53.0761V14.2321C53.0761 15.4889 53.8161 16.1647 54.9552 16.1647C56.227 16.1647 57.0436 15.3951 57.0436 13.8388V8.77344Z" fill="white"/>
<path d="M66.7839 11.0993H64.6383V15.0007C64.6383 16.0133 65.3782 16.0325 66.7839 15.9579V18.1527C63.4237 18.5279 62.1896 17.5707 62.1896 15.0007V11.0993H60.5381V8.77347H62.1896V6.87819L64.6383 6.14697V8.77347H66.7839V11.0993Z" fill="white"/>
<path d="M73.5807 11.0993H71.4351V15.0007C71.4351 16.0133 72.1751 16.0325 73.5807 15.9579V18.1527C70.2205 18.5279 68.9865 17.5707 68.9865 15.0007V11.0993H67.335V8.77347H68.9865V6.87819L71.4351 6.14697V8.77347H73.5807V11.0993Z" fill="white"/>
<path d="M74.9292 18.1527V4.4585H77.3779V18.1527H74.9292Z" fill="white"/>
<path d="M81.3077 14.457C81.6302 15.6392 82.5223 16.2201 83.9839 16.2201C84.9138 16.2201 85.6355 15.9014 86.1101 15.2821L88.0841 16.4077C87.1543 17.739 85.7681 18.4149 83.9462 18.4149C82.3702 18.4149 81.1178 17.9459 80.1685 17.0078C79.2193 16.0698 78.7446 14.8876 78.7446 13.4625C78.7446 12.0554 79.2193 10.8733 80.1491 9.93527C81.0789 8.97915 82.2947 8.51013 83.7564 8.51013C85.1425 8.51013 86.3 8.97915 87.192 9.93527C88.1036 10.8925 88.5588 12.0554 88.5588 13.4625C88.5588 13.7812 88.521 14.0999 88.4638 14.457H81.3077ZM86.1112 12.581C85.8265 11.305 84.8772 10.6868 83.7575 10.6868C82.448 10.6868 81.5559 11.3807 81.2711 12.581H86.1112Z" fill="white"/>
<path d="M96.2868 18.4149C94.37 18.4149 92.7368 17.7583 91.3895 16.445C90.0605 15.1126 89.396 13.4998 89.396 11.5865C89.396 9.6731 90.0605 8.06036 91.3895 6.74711C92.7379 5.41578 94.37 4.75916 96.2868 4.75916C98.2037 4.75916 99.8369 5.41578 101.184 6.74711C102.531 8.06036 103.196 9.6731 103.196 11.5865C103.196 13.4998 102.531 15.1126 101.184 16.445C99.8369 17.7583 98.2037 18.4149 96.2868 18.4149ZM96.2868 15.8822C97.5014 15.8822 98.5273 15.4878 99.3428 14.682C100.159 13.875 100.577 12.8443 100.577 11.5865C100.577 10.3297 100.159 9.29789 99.3428 8.49095C98.5262 7.68401 97.5014 7.27151 96.2868 7.27151C95.0722 7.27151 94.0463 7.68515 93.2308 8.49208C92.4142 9.29902 91.9968 10.3309 91.9968 11.5876C91.9968 12.8443 92.4142 13.8762 93.2308 14.6831C94.0463 15.4889 95.0722 15.8822 96.2868 15.8822Z" fill="white"/>
<path d="M113.336 9.95448C114.247 10.9106 114.702 12.0747 114.702 13.4625C114.702 14.8503 114.247 16.0325 113.336 16.9886C112.444 17.9447 111.342 18.4137 110.07 18.4137C108.741 18.4137 107.717 17.9639 106.995 17.044V21.9026H104.546V8.77346H106.995V9.87989C107.717 8.96107 108.741 8.51013 110.07 8.51013C111.342 8.51013 112.442 8.99836 113.336 9.95448ZM109.614 16.1082C110.374 16.1082 111 15.8641 111.493 15.377C112.006 14.8707 112.253 14.2321 112.253 13.4636C112.253 12.694 112.006 12.0566 111.493 11.5695C110.999 11.0632 110.374 10.8191 109.614 10.8191C108.855 10.8191 108.228 11.0632 107.735 11.5695C107.241 12.0566 106.995 12.6951 106.995 13.4636C106.995 14.2321 107.242 14.8707 107.735 15.377C108.229 15.8641 108.855 16.1082 109.614 16.1082Z" fill="white"/>
<path d="M119.829 12.4691C121.215 12.7505 123.019 13.4071 122.999 15.4143C122.999 16.3704 122.639 17.1208 121.898 17.6464C121.176 18.1527 120.265 18.4149 119.183 18.4149C117.227 18.4149 115.898 17.6644 115.196 16.1828L117.322 15.0007C117.607 15.8076 118.214 16.2201 119.183 16.2201C120.057 16.2201 120.492 15.9579 120.492 15.4132C120.492 14.9068 119.733 14.6254 118.765 14.3813C117.361 14.0253 115.595 13.4433 115.595 11.4926C115.595 10.5738 115.937 9.84146 116.62 9.31707C117.322 8.77346 118.176 8.51013 119.201 8.51013C120.738 8.51013 122.067 9.22326 122.808 10.4992L120.72 11.6249C120.416 10.9874 119.903 10.6687 119.201 10.6687C118.574 10.6687 118.1 10.9682 118.1 11.4373C118.102 11.9436 118.861 12.225 119.829 12.4691Z" fill="white"/>
<path d="M2.80821 1.39123L4.6736 4.58506H0.939398C0.216576 4.58506 -0.235188 5.35809 0.126223 5.97629L1.63248 8.55419C1.85551 8.93505 2.2661 9.17013 2.71214 9.17013H12.7058L10.0273 4.58506H20.7564L15.3901 13.7586L12.7116 9.17352L7.71471 17.7266C7.49169 18.1074 7.49169 18.5776 7.71471 18.9585L9.22097 21.5364C9.58238 22.1546 10.4859 22.1546 10.8473 21.5364L12.715 18.3403L14.5815 21.5341C14.9429 22.1523 15.8453 22.1523 16.2067 21.5341L27.9812 1.39123C28.3437 0.77303 27.892 0 27.1691 0H3.62139C2.89857 0 2.44795 0.77303 2.80821 1.39123Z" fill="url(#paint0_linear)"/>
<defs>
<linearGradient id="paint0_linear" x1="12.4086" y1="0.542512" x2="24.7926" y2="21.9599" gradientUnits="userSpaceOnUse">
<stop stop-color="#35CBFF"/>
<stop offset="0.5269" stop-color="#794EFF"/>
<stop offset="0.9434" stop-color="#3130D5"/>
</linearGradient>
</defs>
</svg>
